<svg xmlns="http://www.w3.org/2000/svg" viewBox="0 0 2619 1220"><defs><style>.cls-1{fill:#3c1441;}.cls-2{fill:#fff;}.cls-3{fill:#b7d242;}</style></defs><g id="Layer_2" data-name="Layer 2"><g id="Layer_1-2" data-name="Layer 1"><rect class="cls-1" width="2619" height="1220"/><path class="cls-2" d="M346,529h24.55V691H346Z"/><path class="cls-2" d="M461.54,529h23.11l46.44,105.54L576.64,529h23.22V691H575.31V590h-.55l-33.89,77.77H520.43L486.54,590h-.44V691H461.54Z"/><path class="cls-2" d="M773.85,654.77H712.41L700,691H674l58.88-162H753.4l58.89,162H786.4Zm-7-21.77L743.4,562.23H743L719.52,633Z"/><path class="cls-2" d="M934.94,601.78h57.55v33q-.45,24.33-16.66,40.77t-41.11,16.77q-19.11-.44-31.89-9.33-13-8.55-18.88-19.77c-1.19-2.45-2.26-4.78-3.23-7a45.51,45.51,0,0,1-2.22-8.67q-1.66-9.78-1.66-37.55,0-28.21,1.66-37.77T884,556.78q5.88-11.22,18.88-20,12.78-8.89,31.89-9.11,23.44.23,38.22,13.88a61.13,61.13,0,0,1,18.66,34.11h-26A35.67,35.67,0,0,0,954.72,559q-8.22-6.56-20-6.78a34,34,0,0,0-14.89,3.44A30.88,30.88,0,0,0,909.61,564a26.86,26.86,0,0,0-6.33,13.44q-1.78,8.65-1.78,32.55t1.78,32.33A27,27,0,0,0,909.61,656a33.24,33.24,0,0,0,25.11,11.78q14.32,0,23.66-9.77,9.33-9.35,9.56-24.56V625h-33Z"/><path class="cls-2" d="M1078,529h24.55V691H1078Z"/><path class="cls-2" d="M1193.58,529h23.11L1290,644.11h.44V529H1315V691h-23.22l-73.21-115.1h-.45V691h-24.55Z"/><path class="cls-2" d="M1406.11,529h103.44v23.22h-78.88v46.22H1498v21.77h-67.32v47.55h78.88V691H1406.11Z"/><path class="cls-2" d="M1801.71,529h56.67q32.88.22,49.32,27.33a48.71,48.71,0,0,1,7.45,19.11q1.21,10,1.22,34.55,0,26.12-1.89,36.44a40.3,40.3,0,0,1-2.67,9.33,87.84,87.84,0,0,1-4.55,8.34A56.37,56.37,0,0,1,1887.48,683q-12.56,8-30.77,8h-55Zm24.56,138.76h29.33q20.65,0,30-14.11a26.93,26.93,0,0,0,5.23-13.22q1-7.89,1-29.55,0-21.1-1-30.22-1.33-9.1-6.34-14.78-10.21-14.1-28.88-13.66h-29.33Z"/><path class="cls-2" d="M2080.8,654.77h-61.44L2006.92,691h-26l58.88-162h20.55l58.89,162h-25.89Zm-7-21.77-23.44-70.77h-.45L2026.47,633Z"/><path class="cls-2" d="M2204,550.89h-44.33V529H2273v21.88h-44.33V691H2204Z"/><circle class="cls-3" cx="1652.52" cy="607.09" r="29.76"/></g></g></svg>